{"title":"MTV Video Music Awards VMA 2013 HDTV 720p x264 - PRiSTiNE [P2PDL","uid":8894356,"size":732762611,"categoryP":"video","categoryS":"hd___tv_shows","magnet":"?xt=urn:btih:f8afea4157092796b82414b5b1660eae5bd5b21a&amp;dn=MTV+Video+Music+Awards+VMA+2013+HDTV+720p+x264+-+PRiSTiNE+%5BP2PDL&amp;tr=udp%3A%2F%2Ftracker.openbittorrent.com%3A80&amp;tr=udp%3A%2F%2Fopen.demonii.com%3A1337&amp;tr=udp%3A%2F%2Ftracker.coppersurfer.tk%3A6969&amp;tr=udp%3A%2F%2Fexodus.desync.com%3A6969","seeders":12,"leechers":1,"uploader":"Vitamin_X","files":-1,"time":1378665145,"description":"_______ Visit us at our Semi Public Bittorrent Community ________\n  &lt;a href=&quot;\nhttp://p2pdl.com&quot; rel=&quot;nofollow&quot; target=&quot;_NEW&quot;&gt;\nhttp://p2pdl.com&lt;/a&gt;  _____________________________ &lt;a href=&quot; http://p2pdl.com&quot; rel=&quot;nofollow&quot; target=&quot;_NEW&quot;&gt; http://p2pdl.com&lt;/a&gt;\n\n\nMTV Video Music Awards VMA 2013 HDTV 720p x264 AAC - PRiSTiNE\n\n\nThe 2013 MTV Video Music Awards were held on August 25, 2013 at \nthe Barclays Center in Brooklyn, New York. Marking the 30th \ninstallment of the award show, they were the first to be held \nin New York City not to use a venue within the borough of \nManhattan. Nominations were announced on July 17, 2013. \nLeading the nominees were Justin Timberlake, Macklemore \nand Ryan Lewis with six, followed by Bruno Mars, Miley Cyrus, \nand Robin Thicke with four.\n\nInfo: &lt;a href=&quot;\nhttp://www.imdb.com/title/tt3042846/&quot; rel=&quot;nofollow&quot; target=&quot;_NEW&quot;&gt;\nhttp://www.imdb.com/title/tt3042846/&lt;/a&gt;\n\nGeneral\nFormat                         : MPEG-4\nFile size                      : 697 MiB\nDuration                       : 1h 41mn\nOverall bit rate mode          : Variable\nOverall bit rate               : 957 Kbps\n\nVideo\nFormat                         : AVC\nBit rate                       : 874 Kbps\nWidth                          : 1 280 pixels\nHeight                         : 720 pixels\nDisplay aspect ratio           : 16:9\nFrame rate mode                : Constant\nFrame rate                     : 29.970 fps\nBit depth                      : 10 bits\nStream size                    : 636 MiB (91%)\nWriting library                : x264 core 138 r2358 9e941d1\n\nAudio\nFormat                         : AAC\nBit rate                       : 80.0 Kbps\nChannel(s)                     : 2 channels\nChannel positions              : Front: L R\nSampling rate                  : 48.0 KHz / 24.0 KHz\nStream size                    : 58.2 MiB (8%)\n\n\nSubtitle                       : No\n\nSource                         : 720p.HDTV.x264-2HD\n &lt;a href=&quot;\nhttp://someimage.com/Qrchw5j&quot; rel=&quot;nofollow&quot; target=&quot;_NEW&quot;&gt;\nhttp://someimage.com/Qrchw5j&lt;/a&gt; &lt;a href=&quot;\nhttp://someimage.com/OUxmQgL&quot; rel=&quot;nofollow&quot; target=&quot;_NEW&quot;&gt;\nhttp://someimage.com/OUxmQgL&lt;/a&gt; &lt;a href=&quot;\nhttp://someimage.com/UzSFuDU&quot; rel=&quot;nofollow&quot; target=&quot;_NEW&quot;&gt;\nhttp://someimage.com/UzSFuDU&lt;/a&gt; &lt;a href=&quot;\nhttp://someimage.com/TpCGap9&quot; rel=&quot;nofollow&quot; target=&quot;_NEW&quot;&gt;\nhttp://someimage.com/TpCGap9&lt;/a&gt; &lt;a href=&quot;\nhttp://someimage.com/zKNf2Pn&quot; rel=&quot;nofollow&quot; target=&quot;_NEW&quot;&gt;\nhttp://someimage.com/zKNf2Pn&lt;/a&gt; &lt;a href=&quot;\nhttp://someimage.com/oLw2vUe&quot; rel=&quot;nofollow&quot; target=&quot;_NEW&quot;&gt;\nhttp://someimage.com/oLw2vUe&lt;/a&gt; &lt;a href=&quot;\nhttp://someimage.com/b1QWqyr&quot; rel=&quot;nofollow&quot; target=&quot;_NEW&quot;&gt;\nhttp://someimage.com/b1QWqyr&lt;/a&gt; &lt;a href=&quot;\nhttp://someimage.com/L2bviD1&quot; rel=&quot;nofollow&quot; target=&quot;_NEW&quot;&gt;\nhttp://someimage.com/L2bviD1&lt;/a&gt;\n\n----------------------------------------------------------------------------------------------------\n\n\nEncoded using revolutionary 10bit encoding, which enables us to provide you more crispier \nand sharper images at small sizes, just make sure you follow our instructions without a fault.\nRecommend to you to use latest version of VLC player. Install K-Lite Codec Pack or shark007 codecs\nin case of any kind of problem in playback (For non-VLC Media Player users). Alternatively, install\nCore AVC codecs, the fastest decoder that there is coupled with Community Center Codec Pack and play\non Windows Media Player Classic. Check sample to be sure.\nEnjoy!\n\nEncoder Notes:Looking For Early Access To Anything You Can Provide DVDScr, R5, DVDR, BluRay, Direct\nAudio, Music Releases and Seedboxes. We require dedicated servers, so as to do more \nand fast releases of movies.\nIf You Got anything to offer please contact us at &quot;&lt;a class=&quot;__cf_email__&quot; href=&quot;/cdn-cgi/l/email-protection&quot; data-cfemail=&quot;7c0c0e1b3c14090f14521f1311&quot;&gt;[email&amp;#160;protected]&lt;/a&gt;&lt;script cf-hash='f9e31' type=&quot;text/javascript&quot;&gt;\n/* &lt;![CDATA[ */!function(){try{var t=&quot;currentScript&quot;in document?document.currentScript:function(){for(var t=document.getElementsByTagName(&quot;script&quot;),e=t.length;e--;)if(t[e].getAttribute(&quot;cf-hash&quot;))return t[e]}();if(t&amp;&amp;t.previousSibling){var e,r,n,i,c=t.previousSibling,a=c.getAttribute(&quot;data-cfemail&quot;);if(a){for(e=&quot;&quot;,r=parseInt(a.substr(0,2),16),n=2;a.length-n;n+=2)i=parseInt(a.substr(n,2),16)^r,e+=String.fromCharCode(i);e=document.createTextNode(e),c.parentNode.replaceChild(e,c)}}}catch(u){}}();/* ]]&gt; */&lt;/script&gt;&quot;.\n\nFacebook Fan Page:  \nSearch P2PDL on FB and don't forget to hit like!!!\t\t\n\nFor more of our team uploads visit @           &lt;a href=&quot;\nhttp://thepiratebay.se/user/varuttee&quot; rel=&quot;nofollow&quot; target=&quot;_NEW&quot;&gt;\nhttp://thepiratebay.se/user/varuttee&lt;/a&gt;","torrent":{"xt":"urn:btih:f8afea4157092796b82414b5b1660eae5bd5b21a","amp;dn":"MTV+Video+Music+Awards+VMA+2013+HDTV+720p+x264+-+PRiSTiNE+%5BP2PDL","amp;tr":["udp%3A%2F%2Ftracker.openbittorrent.com%3A80","udp%3A%2F%2Fopen.demonii.com%3A1337","udp%3A%2F%2Ftracker.coppersurfer.tk%3A6969","udp%3A%2F%2Fexodus.desync.com%3A6969"],"infoHash":"f8afea4157092796b82414b5b1660eae5bd5b21a","infoHashBuffer":{"type":"Buffer","data":[248,175,234,65,87,9,39,150,184,36,20,181,177,102,14,174,91,213,178,26]},"announce":[],"urlList":[]}}